<svg width="220" height="220" viewBox="0 0 220 220" fill="none" xmlns="http://www.w3.org/2000/svg">
<path d="M164.738 116.967C195.131 116.967 219.769 90.8238 219.769 58.5745C219.769 26.3253 195.131 0.182098 164.738 0.182098C134.346 0.182098 109.708 26.3253 109.708 58.5745C109.708 90.8238 134.346 116.967 164.738 116.967Z" fill="#D9D9D9"/>
<path d="M164.739 185.576C195.131 185.576 219.77 170.218 219.77 151.272C219.77 132.326 195.131 116.967 164.739 116.967C134.346 116.967 109.708 132.326 109.708 151.272C109.708 170.218 134.346 185.576 164.739 185.576Z" fill="#D9D9D9"/>
<path d="M164.739 219.881C195.131 219.881 219.77 212.202 219.77 202.729C219.77 193.256 195.131 185.576 164.739 185.576C134.346 185.576 109.708 193.256 109.708 202.729C109.708 212.202 134.346 219.881 164.739 219.881Z" fill="#D9D9D9"/>
<path d="M55.031 116.897C85.4237 116.897 110.062 90.7534 110.062 58.5041C110.062 26.2549 85.4237 0.111694 55.031 0.111694C24.6382 0.111694 0 26.2549 0 58.5041C0 90.7534 24.6382 116.897 55.031 116.897Z" fill="#D9D9D9"/>
<path d="M55.031 185.506C85.4237 185.506 110.062 170.147 110.062 151.201C110.062 132.255 85.4237 116.897 55.031 116.897C24.6382 116.897 0 132.255 0 151.201C0 170.147 24.6382 185.506 55.031 185.506Z" fill="#D9D9D9"/>
<path d="M55.031 219.811C85.4237 219.811 110.062 212.131 110.062 202.658C110.062 193.185 85.4237 185.506 55.031 185.506C24.6382 185.506 0 193.185 0 202.658C0 212.131 24.6382 219.811 55.031 219.811Z" fill="#D9D9D9"/>
</svg>
